<svg id="Capa_1" enable-background="new 0 0 511.908 511.908" height="512" viewBox="0 0 511.908 511.908" width="512" xmlns="http://www.w3.org/2000/svg"><g><g><g><path d="m435.638 56.377c-16.051-.002-30.434 7.599-40.169 19.611-9.731-12.014-24.113-19.619-40.164-19.621-29.322-.004-53.1 25.361-53.104 56.657-.004 27.35 24.981 73.818 80.325 102.273 3.366 1.73 6.844 3.394 10.435 4.981 1.582.699 3.395.7 4.978.001 3.592-1.586 7.07-3.249 10.436-4.979 55.345-28.441 80.342-74.902 80.346-102.252.005-31.297-23.76-56.668-53.083-56.671z" fill="#fb3a82"/><g fill="#fb1466"><path d="m376.684 61.153c-7.249 21.149-25.545 45.098-56.438 60.971-2.382 1.224-4.877 2.415-7.394 3.526-2.756 1.225-5.648 1.939-8.619 2.165-1.36-5.33-2.029-10.32-2.028-14.788.004-31.3 23.777-56.665 53.103-56.662 7.598.001 14.833 1.714 21.376 4.788z"/><path d="m488.725 113.05c-.004 27.344-25.005 73.818-80.349 102.253-3.36 1.731-6.841 3.394-10.441 4.97-1.577.703-3.395.703-4.972-.001-3.6-1.578-7.063-3.241-10.44-4.973-4.783-2.452-9.326-5.041-13.645-7.751 45.829-28.556 66.698-69.527 66.702-94.505.003-20.967-10.658-39.261-26.515-49.052 7.818-4.851 16.887-7.61 26.574-7.608 29.315.003 53.09 25.362 53.086 56.667z"/></g></g><g><path d="m326.085 7.506c-9.538-.001-18.085 4.516-23.87 11.654-5.783-7.139-14.329-11.658-23.867-11.66-17.425-.002-31.554 15.071-31.557 33.669-.002 16.253 14.845 43.866 47.733 60.775 2 1.028 4.067 2.017 6.201 2.96.94.416 2.018.416 2.958 0 2.134-.943 4.202-1.931 6.202-2.959 32.889-16.901 47.743-44.51 47.745-60.763.002-18.597-14.12-33.674-31.545-33.676z" fill="#fca5cd"/><path d="m357.632 41.184c-.002 16.249-14.859 43.866-47.747 60.763-1.997 1.029-4.065 2.017-6.205 2.954-.937.418-2.017.417-2.954 0-2.139-.938-4.197-1.926-6.204-2.955-2.842-1.457-5.542-2.996-8.109-4.606 27.234-16.969 39.635-41.316 39.637-56.16.002-12.46-6.334-23.331-15.757-29.149 4.646-2.882 10.035-4.522 15.791-4.521 17.421.002 31.55 15.071 31.548 33.674z" fill="#fc7cb6"/></g></g><g><path d="m174.049 353.491c54.772 54.786 111.738 101.143 166.602 137.224 33.304 21.902 77.434 17.293 105.622-10.889l35.766-35.757c8.859-8.856 8.86-23.217.004-32.076l-80.487-80.508c-8.856-8.859-23.217-8.86-32.076-.004l-26.675 26.668c-10.268 10.265-26.317 11.875-38.473 3.934-29.594-19.333-53.185-39.637-76.202-62.66s-43.314-46.619-62.64-76.218c-7.938-12.157-6.324-28.206 3.944-38.472l26.675-26.668c8.859-8.856 8.86-23.217.004-32.076l-80.487-80.508c-8.856-8.859-23.217-8.86-32.076-.004l-35.766 35.758c-28.189 28.182-32.809 72.31-10.916 105.62 36.067 54.872 82.409 111.85 137.181 166.636z" fill="#64e0c4"/><path d="m482.037 444.065-35.759 35.759c-28.189 28.179-72.328 32.789-105.627 10.89-6.5-4.27-13.02-8.69-19.569-13.25 28.129 7.17 58.828-.63 80.288-22.079l45.999-45.989c8.86-8.86 8.86-23.219 0-32.079l34.679 34.679c8.849 8.86 8.849 23.219-.011 32.069z" fill="#27d1b3"/><path d="m463.22 462.884 18.82-18.815c8.859-8.856 8.86-23.217.004-32.076l-80.487-80.508c-8.856-8.859-23.217-8.86-32.076-.004l-18.82 18.815z" fill="#fdf6ed"/><path d="m482.037 444.065-18.819 18.819-34.669-34.679 18.819-18.81c8.86-8.86 8.86-23.219 0-32.079l34.679 34.679c8.85 8.861 8.85 23.22-.01 32.07z" fill="#f9e1c2"/><path d="m177.289 176.88 18.82-18.815c8.859-8.856 8.86-23.217.004-32.076l-80.487-80.508c-8.856-8.859-23.217-8.86-32.076-.004l-18.82 18.815z" fill="#fdf6ed"/><g><path d="m448.855 65.981c19.06 6.223 32.37 25.577 32.367 47.065-.002 14.647-8.108 33.811-21.684 51.261-2.543 3.27-1.955 7.981 1.314 10.525 1.369 1.064 2.991 1.58 4.6 1.58 2.235 0 4.446-.994 5.925-2.895 15.787-20.293 24.843-42.333 24.845-60.47.004-28.339-17.161-52.984-42.712-61.327-3.938-1.285-8.172.864-9.457 4.802-1.286 3.939.864 8.173 4.802 9.459z"/><path d="m291.095 108.614c1.2.617 2.426 1.215 3.663 1.8-.033.87-.055 1.741-.056 2.608-.004 32.573 28.984 80.454 84.396 108.944 3.528 1.814 7.173 3.554 10.833 5.171 1.753.775 3.637 1.163 5.52 1.163 1.882 0 3.765-.387 5.521-1.161 3.666-1.62 7.31-3.358 10.833-5.169 12.901-6.63 24.866-14.569 35.563-23.598 3.166-2.672 3.565-7.403.894-10.569-2.672-3.163-7.403-3.566-10.569-.894-9.833 8.299-20.85 15.606-32.744 21.719-3.09 1.588-6.283 3.117-9.496 4.549-3.21-1.431-6.401-2.96-9.496-4.551-55.558-28.565-76.258-73.8-76.255-95.602 0-.888.029-1.778.073-2.667 1.192-.565 2.375-1.145 3.538-1.742 22.554-11.591 37.97-28.541 45.805-44.561 11.735 1.066 22.698 6.991 30.523 16.651 1.424 1.758 3.565 2.779 5.827 2.779h.001c2.262 0 4.402-1.021 5.827-2.777 5.252-6.48 11.997-11.379 19.506-14.166 3.883-1.441 5.862-5.759 4.421-9.642s-5.756-5.863-9.642-4.421c-7.411 2.751-14.244 7.018-20.109 12.516-8.793-8.252-19.651-13.599-31.26-15.424.605-2.924.917-5.739.918-8.39.003-22.702-17.512-41.174-39.043-41.178-.001 0-.002 0-.004 0-8.724 0-17.089 3.06-23.866 8.58-6.778-5.519-15.144-8.581-23.868-8.582-.003 0-.002 0-.004 0-21.53 0-39.051 18.468-39.054 41.168-.003 20.279 17.791 49.958 51.804 67.446zm-12.751-93.614h.002c6.894.001 13.469 3.237 18.041 8.88 1.424 1.758 3.565 2.779 5.827 2.779 2.262 0 4.403-1.021 5.827-2.777 4.572-5.642 11.146-8.876 18.041-8.876 0 0 .002 0 .001 0 13.261.002 24.048 11.744 24.046 26.176-.001 12.238-11.859 37.745-43.672 54.094-1.391.714-2.815 1.407-4.253 2.068-1.44-.663-2.865-1.356-4.251-2.069-31.812-16.356-43.665-41.867-43.663-54.104.003-14.432 10.793-26.171 24.054-26.171z"/><path d="m406.86 326.183c-11.766-11.769-30.914-11.771-42.682-.005l-26.675 26.668c-7.694 7.691-19.92 8.938-29.068 2.959-26.582-17.365-49.712-36.39-75-61.684-25.289-25.296-44.307-48.432-61.665-75.017-5.975-9.15-4.727-21.375 2.967-29.067l26.675-26.668c5.701-5.699 8.841-13.278 8.842-21.34.001-8.063-3.137-15.642-8.837-21.343l-31.221-31.229c-2.929-2.929-7.677-2.93-10.607-.001-2.929 2.929-2.93 7.677-.001 10.606l31.222 31.229c5.918 5.92 5.917 15.551-.003 21.47l-13.516 13.512-101.954-101.98 13.516-13.512c5.92-5.916 15.551-5.916 21.469.003l25.941 25.948c2.929 2.929 7.678 2.93 10.607.001 2.929-2.928 2.93-7.677.001-10.606l-25.941-25.948c-11.765-11.769-30.912-11.771-42.682-.005l-35.767 35.757c-30.594 30.586-35.591 78.968-11.881 115.043 37.736 57.413 84.215 113.876 138.145 167.82 53.932 53.945 110.383 100.438 167.785 138.188 15.251 10.029 32.703 14.928 50.083 14.927 23.721 0 47.306-9.125 64.963-26.778l35.767-35.757c11.769-11.767 11.771-30.914.005-42.683zm34.11 148.339c-25.588 25.581-66.045 29.757-96.198 9.926-55.755-36.666-112.956-83.783-165.419-136.26-52.461-52.475-99.564-109.688-136.217-165.453-19.822-30.159-15.637-70.615 9.951-96.197l11.642-11.639 101.954 101.98-2.551 2.551c-12.684 12.681-14.754 32.815-4.921 47.876 17.946 27.485 37.566 51.363 63.616 77.421 26.049 26.056 49.921 45.682 77.405 63.637 15.056 9.834 35.193 7.771 47.877-4.91l2.551-2.55 101.954 101.98zm35.767-35.756-13.515 13.512-101.954-101.98 13.516-13.512c5.92-5.918 15.551-5.915 21.469.003l80.488 80.508c5.917 5.919 5.916 15.55-.004 21.469z"/></g></g></g></svg>